# xmcd
#
# Track frame offsets:
#	150
#	31451
#	47039
#	68765
#	84306
#	101551
#	121745
#	149400
#	170818
#	184022
#	204777
#	222641
#	239094
#	259093
#	284673
#	302298
#	321637
#	341742
#
# Disc length: 4782 seconds
#
# Revision: 1
# Processed by: cddbd v1.5.2PL0 Copyright (c) Steve Scherf et al.
# Submitted via: audiograbber 1.83.01
#
DISCID=1712ac12
DTITLE=Чиж и Со - Grand Collection
DYEAR=2005
DGENRE=Rock and Roll
TTITLE0=Перекресток
TTITLE1=Поход
TTITLE2=О.К.
TTITLE3=Солдат на привале
TTITLE4=То измена, то засада
TTITLE5=Эрогенная зона
TTITLE6=Полонез
TTITLE7=Бомбардировщики
TTITLE8=Вечная молодость
TTITLE9=О любви
TTITLE10=Еду, Еду
TTITLE11=Hoochie Coochie man
TTITLE12=Дорожная №2
TTITLE13=Сен Семилья
TTITLE14=Still life
TTITLE15=Мне не хватает свободы
TTITLE16=Вот пуля просвистела
TTITLE17=На поле танки грохотали
EXTD=
EXTT0=
EXTT1=
EXTT2=
EXTT3=
EXTT4=
EXTT5=
EXTT6=
EXTT7=
EXTT8=
EXTT9=
EXTT10=
EXTT11=
EXTT12=
EXTT13=
EXTT14=
EXTT15=
EXTT16=
EXTT17=
PLAYORDER=
